Coordinates
version=1
nRows=22
nColumns=24
inDegrees=yes

Units are S.I. units (second, meters, Newtons, ...)
Angles are in degrees.

endheader
time	pelvis_tilt	pelvis_list	pelvis_rotation	pelvis_tx	pelvis_ty	pelvis_tz	hip_flexion_r	hip_adduction_r	hip_rotation_r	knee_angle_r	ankle_angle_r	subtalar_angle_r	mtp_angle_r	hip_flexion_l	hip_adduction_l	hip_rotation_l	knee_angle_l	ankle_angle_l	subtalar_angle_l	mtp_angle_l	lumbar_extension	lumbar_bending	lumbar_rotation
      0.58300000	      4.95421185	      3.75842976	      0.75219539	     -0.76359492	      1.00627035	      0.27065446	     16.38080579	     -4.14707403	     -9.59167371	      4.41540374	      0.76310616	     -4.82844897	     -0.46835830	    -19.98044695	      5.90273965	     -2.51774413	     -6.09330421	      9.21524990	    -12.96336627	     -0.60327666	    -17.83243154	     -3.44106278	     -3.04101378
      0.58716667	      5.17889027	      3.61419290	      0.84735884	     -0.75796479	      1.00588600	      0.27046201	     16.26177275	     -4.02550592	     -9.47095935	      3.77813386	      0.65126229	     -5.02288888	     -0.55679847	    -20.38757457	      5.68141008	     -2.45572250	     -6.46615766	      9.37125063	    -12.79041718	     -0.80544016	    -18.09097634	     -3.13707456	     -3.12302399
      0.59133333	      5.31759691	      3.49680203	      0.93165114	     -0.75230924	      1.00538004	      0.27027482	     16.25335661	     -3.93172777	     -9.31900817	      3.06462419	      0.56852137	     -5.18692061	     -0.57919197	    -20.69508736	      5.50292439	     -2.31839011	     -6.85877924	      9.51571079	    -12.77601757	     -0.86880124	    -18.23676971	     -2.85658158	     -3.19075250
      0.59550000	      5.61742635	      3.29972642	      1.05802021	     -0.74653378	      1.00519577	      0.27008257	     15.99843400	     -3.74843085	     -9.24976289	      2.43933883	      0.27338194	     -5.51171037	     -0.61872165	    -21.17480981	      5.20550336	     -2.26875494	     -7.24726376	      9.60487772	    -12.55982719	     -1.02483569	    -18.55901818	     -2.48428507	     -3.40873481
      0.59966667	      5.82470077	      3.13946755	      1.16226006	     -0.74074055	      1.00487273	      0.26993824	     15.86820532	     -3.59946634	     -9.15712657	      1.74219666	      0.02295785	     -5.78053246	     -0.63040794	    -21.54682630	      4.96152404	     -2.15876191	     -7.65949002	      9.72236327	    -12.44532668	     -1.13012785	    -18.76800421	     -2.16616276	     -3.52001326
      0.60383333	      6.05683335	      2.95107118	      1.27042966	     -0.73488233	      1.00463815	      0.26984744	     15.67383784	     -3.41043954	     -9.06400408	      1.09539870	     -0.34148696	     -6.09480632	     -0.62241204	    -21.91977568	      4.67536144	     -2.14263710	     -8.11805915	      9.75392807	    -12.28697565	     -1.24715864	    -19.00537389	     -1.80328364	     -3.67322119
      0.60800000	      6.24881107	      2.77564856	      1.36967553	     -0.72901068	      1.00435318	      0.26979845	     15.52688241	     -3.22994053	     -8.96405558	      0.43039249	     -0.74682629	     -6.43176404	     -0.60411814	    -22.24624130	      4.40928661	     -2.06678218	     -8.59213987	      9.84559433	    -12.16787593	     -1.31209017	    -19.19832406	     -1.47986379	     -3.76978314
      0.61216667	      6.45373922	      2.58445763	      1.46510732	     -0.72307830	      1.00414426	      0.26980903	     15.33252645	     -3.02209182	     -8.85564831	     -0.17622537	     -1.26360430	     -6.80671437	     -0.57286344	    -22.55832390	      4.11839331	     -2.07962391	     -9.11264645	      9.83853562	    -12.02442498	     -1.36240824	    -19.39648229	     -1.12770778	     -3.89553943
      0.61633333	      6.70070967	      2.37270917	      1.51312448	     -0.71706765	      1.00400961	      0.26994997	     15.08501402	     -2.77130651	     -8.72080326	     -0.77369816	     -1.78658559	     -7.24755762	     -0.47622552	    -22.92496191	      3.81229068	     -2.17900960	     -9.61568147	      9.81577810	    -11.76354524	     -1.43096742	    -19.62120790	     -0.76631672	     -3.99210870
      0.62050000	      6.83325778	      2.19515636	      1.60456030	     -0.71104252	      1.00378043	      0.27000493	     14.95393759	     -2.57386630	     -8.64462018	     -1.36341540	     -2.41835052	     -7.68317632	     -0.42073960	    -23.14207014	      3.53995399	     -2.15151922	    -10.16583855	      9.76181369	    -11.64714000	     -1.44801622	    -19.71527421	     -0.44547818	     -4.05889002
      0.62466667	      7.01063815	      1.98056599	      1.66038872	     -0.70497066	      1.00364755	      0.27021143	     14.74592754	     -2.31348179	     -8.51296695	     -1.89035306	     -3.11274025	     -8.19895587	     -0.34223209	    -23.38709018	      3.22668702	     -2.24973210	    -10.75691928	      9.68121882	    -11.45092254	     -1.44600318	    -19.86620758	     -0.09650834	     -4.14991833
      0.62883333	      7.18678720	      1.76869439	      1.69538300	     -0.69888766	      1.00354317	      0.27048123	     14.53063316	     -2.04866984	     -8.35315780	     -2.39468929	     -3.82675010	     -8.73406497	     -0.24277063	    -23.60718806	      2.91864734	     -2.39611273	    -11.39157593	      9.57040785	    -11.23361613	     -1.41739859	    -20.00376626	      0.25485571	     -4.19307137
      0.63300000	      7.33924553	      1.54869289	      1.71430270	     -0.69276679	      1.00345130	      0.27080396	     14.33685363	     -1.77180614	     -8.20551152	     -2.88795869	     -4.59056717	     -9.26340258	     -0.13957729	    -23.78713954	      2.60787417	     -2.55621666	    -12.04954849	      9.41735231	    -11.03865861	     -1.36279373	    -20.12049775	      0.58933581	     -4.20995600
      0.63716667	      7.49073167	      1.32210450	      1.68111167	     -0.68666352	      1.00338435	      0.27132130	     14.13480943	     -1.46415426	     -7.95451865	     -3.34600762	     -5.36674773	     -9.83639016	      0.02951518	    -23.92971662	      2.29310517	     -2.83440050	    -12.77963293	      9.24239331	    -10.76237784	     -1.23650195	    -20.25441281	      0.89516420	     -4.19558633
      0.64133333	      7.58529606	      1.10046720	      1.69313854	     -0.68047587	      1.00331303	      0.27165030	     13.99715956	     -1.19295330	     -7.84947885	     -3.83467755	     -6.14612401	    -10.37182163	      0.14204813	    -24.00702786	      1.98731761	     -2.98726535	    -13.50994311	      9.00932169	    -10.62027072	     -1.12310440	    -20.28821387	      1.23916734	     -4.16385783
      0.64550000	      7.68314396	      0.87189276	      1.65969828	     -0.67429555	      1.00328727	      0.27214577	     13.84209779	     -0.89485562	     -7.65138387	     -4.28266872	     -6.93986942	    -10.92799431	      0.26246212	    -24.05135906	      1.67569598	     -3.24403778	    -14.30487806	      8.72727595	    -10.42376942	     -0.97110772	    -20.34110437	      1.55841647	     -4.13971597
      0.64966667	      7.79821925	      0.63436245	      1.53957847	     -0.66813352	      1.00328371	      0.27285579	     13.69571275	     -0.56373154	     -7.38289379	     -4.77014551	     -7.71475346	    -11.51593670	      0.44457745	    -24.10095891	      1.37248747	     -3.63121635	    -15.12873207	      8.43427891	    -10.11003524	     -0.68936546	    -20.42666307	      1.84643763	     -4.03404843
      0.65383333	      7.84135662	      0.40265179	      1.48977318	     -0.66192991	      1.00327666	      0.27337931	     13.60657709	     -0.27061935	     -7.20494558	     -5.24816672	     -8.41688436	    -12.02928862	      0.58522101	    -24.02630756	      1.06123129	     -3.90499030	    -16.03083651	      8.06042456	     -9.97621525	     -0.41504376	    -20.41550569	      2.16295655	     -3.93549230
      0.65800000	      7.90240029	      0.15409761	      1.39166427	     -0.65572370	      1.00331583	      0.27402831	     13.50025102	      0.05350496	     -6.97772618	     -5.72714126	     -9.09657362	    -12.53648750	      0.72849654	    -23.94863311	      0.73666571	     -4.26808499	    -16.97534248	      7.65518083	     -9.76546586	     -0.07464749	    -20.42993695	      2.47723916	     -3.81859016
      0.66216667	      7.94684338	     -0.07302458	      1.21253181	     -0.64955481	      1.00335104	      0.27492727	     13.43013377	      0.38074712	     -6.63608572	     -6.23387677	     -9.72097025	    -13.04380428	      0.94051893	    -23.82282518	      0.44088024	     -4.74488035	    -17.96794800	      7.15724769	     -9.44922269	      0.55228860	    -20.43600390	      2.71059103	     -3.61539001
      0.66633333	      7.92525799	     -0.30998984	      1.08587578	     -0.64331865	      1.00335110	      0.27559148	     13.43834315	      0.67677975	     -6.45321363	     -6.78980198	    -10.22817779	    -13.36723862	      3.02275614	    -23.58922639	      0.12983744	     -5.14079523	    -19.01620653	      6.56639708	     -9.41496451	      8.93853069	    -20.35206244	      3.00590250	     -3.46380462
      0.67050000	      7.98135679	     -0.53015437	      1.04591524	     -0.63711169	      1.00358195	      0.27596246	     13.34113003	      0.91336490	     -6.41689810	     -7.33475164	    -10.65509347	    -13.52853594	      3.01176578	    -23.41705548	     -0.17238540	     -5.33797599	    -20.07041010	      5.88541854	     -9.44721289	      8.95460681	    -20.35717167	      3.33684555	     -3.40032421
